<?xml version="1.0" standalone="no"?>
<!DOCTYPE svg PUBLIC "-//W3C//DTD SVG 20010904//EN"
 "http://www.w3.org/TR/2001/REC-SVG-20010904/DTD/svg10.dtd">
<svg version="1.0" xmlns="http://www.w3.org/2000/svg"
 width="144.000000pt" height="144.000000pt" viewBox="0 0 144.000000 144.000000"
 preserveAspectRatio="xMidYMid meet">
<metadata>
Created by potrace 1.11, written by Peter Selinger 2001-2013
</metadata>
<g transform="translate(0.000000,144.000000) scale(0.100000,-0.100000)"
fill="#000000" stroke="none">
<path d="M0 720 l0 -720 269 0 c206 0 271 3 274 13 4 10 6 10 6 0 1 -10 34
-13 130 -13 94 0 131 3 135 13 5 9 7 9 12 0 4 -10 76 -13 310 -13 l304 0 0
720 0 720 -720 0 -720 0 0 -720z m740 488 c-14 -5 -34 -14 -45 -20 -16 -7 -16
-5 4 12 13 11 33 20 45 19 19 0 19 -1 -4 -11z m171 -25 c13 -15 12 -15 -11 -3
-34 17 -36 20 -18 20 9 0 22 -7 29 -17z m-297 -105 c-15 -24 -28 -44 -29 -46
-1 -1 -9 16 -18 38 -18 46 -14 53 6 13 l15 -27 16 32 c9 18 21 32 26 32 6 0
-2 -19 -16 -42z m242 11 c25 -24 78 -125 89 -171 4 -16 13 -28 21 -28 8 0 14
-8 14 -18 0 -11 -7 -18 -20 -18 -11 0 -20 7 -20 16 0 8 -11 36 -25 63 -14 26
-23 47 -20 47 4 0 -2 13 -11 29 -10 17 -21 28 -26 25 -5 -3 -7 0 -6 7 5 18
-55 32 -67 15 -6 -8 -28 -21 -49 -30 -21 -9 -56 -32 -77 -51 -22 -19 -44 -35
-50 -35 -6 0 -8 -7 -5 -16 3 -8 2 -12 -4 -9 -25 15 0 44 77 91 38 23 41 27 33
54 -7 24 -4 32 13 44 31 23 101 15 133 -15z m-362 -221 c3 -13 6 -33 6 -45 0
-12 5 -34 11 -50 8 -21 12 -24 19 -13 5 8 10 12 12 10 18 -28 28 -53 28 -69 0
-11 5 -23 10 -26 6 -3 9 -18 9 -33 -1 -21 -2 -22 -6 -7 -10 40 -23 39 -20 -2
1 -23 5 -39 10 -36 4 2 7 -7 7 -21 0 -13 -4 -26 -10 -28 -6 -2 -6 -15 0 -39 7
-27 17 -39 35 -43 33 -8 46 -36 35 -72 -9 -27 -9 -27 -9 -4 2 39 -2 47 -11 25
-7 -17 -9 -17 -9 -2 -1 17 -21 25 -21 7 0 -5 -7 -7 -15 -4 -8 4 -12 10 -10 15
3 4 -4 18 -17 31 -14 14 -23 17 -26 10 -7 -22 -22 -13 -22 13 0 14 -4 25 -10
25 -5 0 -10 7 -10 15 0 8 -4 15 -8 15 -15 0 -46 81 -45 119 1 79 30 171 53
171 9 0 6 33 -5 50 -3 6 -2 10 3 10 5 0 12 -10 16 -22z m522 -39 c-28 -22 -44
-25 -27 -6 6 8 9 16 7 18 -2 2 7 5 20 5 l24 2 -24 -19z m-44 -11 c-3 -13 -12
-28 -20 -34 -8 -6 -12 -15 -9 -21 10 -17 -41 -39 -61 -26 -10 6 -32 14 -50 17
-17 4 -34 12 -38 17 -3 6 4 7 18 4 64 -16 114 -12 101 8 -4 6 0 8 11 4 11 -4
19 -1 23 11 6 17 23 42 28 42 2 0 1 -10 -3 -22z m-320 -5 c-6 -2 -9 -10 -6
-15 4 -7 2 -8 -5 -4 -13 9 -5 26 12 25 9 0 8 -2 -1 -6z m108 -43 c35 -30 30
-30 -42 3 -44 20 -48 27 -15 27 12 0 38 -13 57 -30z m370 -9 c0 -6 -11 -23
-25 -38 l-26 -28 23 37 c25 40 28 43 28 29z m-80 -96 c-7 -9 -19 -14 -27 -11
-10 4 -12 -2 -8 -22 4 -21 3 -23 -3 -7 -9 19 -9 19 -21 -4 -7 -13 -11 -32 -8
-42 3 -10 0 -19 -5 -19 -16 0 -2 69 18 91 9 10 20 17 23 14 4 -2 13 0 21 6 22
13 24 11 10 -6z m-79 -176 c-5 -26 -9 -34 -10 -19 -1 27 9 73 15 67 2 -2 0
-23 -5 -48z m-41 -59 c0 -16 -4 -30 -10 -30 -5 0 -10 6 -10 14 0 8 -8 17 -17
21 -16 7 -15 9 7 15 14 5 26 8 28 9 1 1 2 -12 2 -29z m-310 -140 c0 -5 -2 -10
-4 -10 -3 0 -8 5 -11 10 -3 6 -1 10 4 10 6 0 11 -4 11 -10z m185 -180 c3 -6
-1 -7 -9 -4 -18 7 -21 14 -7 14 6 0 13 -4 16 -10z m232 -72 c-3 -8 -6 -5 -6 6
-1 11 2 17 5 13 3 -3 4 -12 1 -19z"/>
</g>
</svg>
